<?xml version="1.0" encoding="UTF-8"?>
<svg version="1.1" xmlns="http://www.w3.org/2000/svg" width="512" height="512">
<path d="M0 0 C21.45 0 42.9 0 65 0 C65 10.56 65 21.12 65 32 C75.89 32 86.78 32 98 32 C98 42.89 98 53.78 98 65 C108.56 65 119.12 65 130 65 C130 75.56 130 86.12 130 97 C140.89 97 151.78 97 163 97 C163 107.89 163 118.78 163 130 C173.56 130 184.12 130 195 130 C195 140.89 195 151.78 195 163 C205.56 163 216.12 163 227 163 C227 173.56 227 184.12 227 195 C216.44 195 205.88 195 195 195 C195 205.89 195 216.78 195 228 C184.44 228 173.88 228 163 228 C163 238.56 163 249.12 163 260 C152.11 260 141.22 260 130 260 C130 270.89 130 281.78 130 293 C108.55 293 87.1 293 65 293 C65 303.89 65 314.78 65 326 C54.11 326 43.22 326 32 326 C32 336.56 32 347.12 32 358 C10.55 358 -10.9 358 -33 358 C-33 368.89 -33 379.78 -33 391 C-54.45 391 -75.9 391 -98 391 C-98 380.11 -98 369.22 -98 358 C-108.89 358 -119.78 358 -131 358 C-131 347.44 -131 336.88 -131 326 C-141.56 326 -152.12 326 -163 326 C-163 315.11 -163 304.22 -163 293 C-173.89 293 -184.78 293 -196 293 C-196 282.11 -196 271.22 -196 260 C-206.56 260 -217.12 260 -228 260 C-228 249.44 -228 238.88 -228 228 C-238.89 228 -249.78 228 -261 228 C-261 217.11 -261 206.22 -261 195 C-250.11 195 -239.22 195 -228 195 C-228 184.44 -228 173.88 -228 163 C-217.44 163 -206.88 163 -196 163 C-196 152.11 -196 141.22 -196 130 C-174.55 130 -153.1 130 -131 130 C-131 119.11 -131 108.22 -131 97 C-120.11 97 -109.22 97 -98 97 C-98 86.44 -98 75.88 -98 65 C-76.55 65 -55.1 65 -33 65 C-33 54.11 -33 43.22 -33 32 C-22.11 32 -11.22 32 0 32 C0 21.44 0 10.88 0 0 Z " fill="#F7F7ED" transform="translate(274,57)"/>
<path d="M0 0 C10.89 0 21.78 0 33 0 C33 21.78 33 43.56 33 66 C11.55 66 -9.9 66 -32 66 C-32 108.9 -32 151.8 -32 196 C-42.89 196 -53.78 196 -65 196 C-65 185.11 -65 174.22 -65 163 C-75.56 163 -86.12 163 -97 163 C-97 152.44 -97 141.88 -97 131 C-107.89 131 -118.78 131 -130 131 C-130 120.11 -130 109.22 -130 98 C-119.11 98 -108.22 98 -97 98 C-97 87.44 -97 76.88 -97 66 C-86.44 66 -75.88 66 -65 66 C-65 55.11 -65 44.22 -65 33 C-43.55 33 -22.1 33 0 33 C0 22.11 0 11.22 0 0 Z " fill="#DBDBDC" transform="translate(143,154)"/>
<path d="M0 0 C10.56 0 21.12 0 32 0 C32 10.56 32 21.12 32 32 C42.89 32 53.78 32 65 32 C65 42.89 65 53.78 65 65 C75.56 65 86.12 65 97 65 C97 75.89 97 86.78 97 98 C107.56 98 118.12 98 129 98 C129 108.56 129 119.12 129 130 C118.44 130 107.88 130 97 130 C97 140.89 97 151.78 97 163 C86.44 163 75.88 163 65 163 C65 173.56 65 184.12 65 195 C54.11 195 43.22 195 32 195 C32 152.1 32 109.2 32 65 C21.44 65 10.88 65 0 65 C0 43.55 0 22.1 0 0 Z " fill="#AAAAAA" transform="translate(372,122)"/>
<path d="M0 0 C32.34 0 64.68 0 98 0 C98 10.89 98 21.78 98 33 C87.11 33 76.22 33 65 33 C65 43.56 65 54.12 65 65 C43.55 65 22.1 65 0 65 C0 43.55 0 22.1 0 0 Z " fill="#E4E5E6" transform="translate(241,350)"/>
<path d="M0 0 C10.56 0 21.12 0 32 0 C32 10.89 32 21.78 32 33 C42.56 33 53.12 33 64 33 C64 43.56 64 54.12 64 65 C53.44 65 42.88 65 32 65 C32 75.89 32 86.78 32 98 C21.44 98 10.88 98 0 98 C0 65.66 0 33.32 0 0 Z " fill="#848484" transform="translate(437,187)"/>
<path d="M0 0 C21.45 0 42.9 0 65 0 C65 21.45 65 42.9 65 65 C54.11 65 43.22 65 32 65 C32 54.44 32 43.88 32 33 C21.44 33 10.88 33 0 33 C0 22.11 0 11.22 0 0 Z " fill="#D2D2D2" transform="translate(111,350)"/>
<path d="M0 0 C10.89 0 21.78 0 33 0 C33 32.01 33 64.02 33 97 C22.11 97 11.22 97 0 97 C0 64.99 0 32.98 0 0 Z " fill="#E4E5E6" transform="translate(404,220)"/>
<path d="M0 0 C21.45 0 42.9 0 65 0 C65 21.45 65 42.9 65 65 C54.44 65 43.88 65 33 65 C33 54.44 33 43.88 33 33 C22.11 33 11.22 33 0 33 C0 22.11 0 11.22 0 0 Z " fill="#BDBDBD" transform="translate(13,252)"/>
<path d="M0 0 C10.89 0 21.78 0 33 0 C33 21.78 33 43.56 33 66 C22.11 66 11.22 66 0 66 C0 44.22 0 22.44 0 0 Z " fill="#D2D2D2" transform="translate(143,154)"/>
<path d="M0 0 C21.45 0 42.9 0 65 0 C65 10.89 65 21.78 65 33 C43.55 33 22.1 33 0 33 C0 22.11 0 11.22 0 0 Z " fill="#848484" transform="translate(176,415)"/>
<path d="M0 0 C21.45 0 42.9 0 65 0 C65 10.89 65 21.78 65 33 C43.55 33 22.1 33 0 33 C0 22.11 0 11.22 0 0 Z " fill="#848484" transform="translate(339,317)"/>
<path d="M0 0 C21.45 0 42.9 0 65 0 C65 10.89 65 21.78 65 33 C43.55 33 22.1 33 0 33 C0 22.11 0 11.22 0 0 Z " fill="#E4E5E6" transform="translate(111,317)"/>
<path d="M0 0 C21.45 0 42.9 0 65 0 C65 10.89 65 21.78 65 33 C43.55 33 22.1 33 0 33 C0 22.11 0 11.22 0 0 Z " fill="#AAAAAA" transform="translate(78,187)"/>
<path d="M0 0 C21.45 0 42.9 0 65 0 C65 10.56 65 21.12 65 32 C43.55 32 22.1 32 0 32 C0 21.44 0 10.88 0 0 Z " fill="#848484" transform="translate(241,383)"/>
<path d="M0 0 C21.45 0 42.9 0 65 0 C65 10.56 65 21.12 65 32 C43.55 32 22.1 32 0 32 C0 21.44 0 10.88 0 0 Z " fill="#D2D2D2" transform="translate(176,383)"/>
<path d="M0 0 C21.45 0 42.9 0 65 0 C65 10.56 65 21.12 65 32 C43.55 32 22.1 32 0 32 C0 21.44 0 10.88 0 0 Z " fill="#E4E5E6" transform="translate(339,285)"/>
<path d="M0 0 C10.56 0 21.12 0 32 0 C32 21.45 32 42.9 32 65 C21.44 65 10.88 65 0 65 C0 43.55 0 22.1 0 0 Z " fill="#D2D2D2" transform="translate(372,122)"/>
<path d="M0 0 C21.45 0 42.9 0 65 0 C65 10.56 65 21.12 65 32 C43.55 32 22.1 32 0 32 C0 21.44 0 10.88 0 0 Z " fill="#AAAAAA" transform="translate(176,122)"/>
<path d="M0 0 C21.45 0 42.9 0 65 0 C65 10.56 65 21.12 65 32 C43.55 32 22.1 32 0 32 C0 21.44 0 10.88 0 0 Z " fill="#AAAAAA" transform="translate(274,57)"/>
<path d="M0 0 C10.89 0 21.78 0 33 0 C33 10.89 33 21.78 33 33 C22.11 33 11.22 33 0 33 C0 22.11 0 11.22 0 0 Z " fill="#848484" transform="translate(306,350)"/>
<path d="M0 0 C10.89 0 21.78 0 33 0 C33 10.89 33 21.78 33 33 C22.11 33 11.22 33 0 33 C0 22.11 0 11.22 0 0 Z " fill="#E4E5E6" transform="translate(176,350)"/>
<path d="M0 0 C10.89 0 21.78 0 33 0 C33 10.89 33 21.78 33 33 C22.11 33 11.22 33 0 33 C0 22.11 0 11.22 0 0 Z " fill="#E4E5E6" transform="translate(306,317)"/>
<path d="M0 0 C10.89 0 21.78 0 33 0 C33 10.89 33 21.78 33 33 C22.11 33 11.22 33 0 33 C0 22.11 0 11.22 0 0 Z " fill="#848484" transform="translate(78,317)"/>
<path d="M0 0 C10.89 0 21.78 0 33 0 C33 10.89 33 21.78 33 33 C22.11 33 11.22 33 0 33 C0 22.11 0 11.22 0 0 Z " fill="#848484" transform="translate(404,154)"/>
<path d="M0 0 C10.89 0 21.78 0 33 0 C33 10.89 33 21.78 33 33 C22.11 33 11.22 33 0 33 C0 22.11 0 11.22 0 0 Z " fill="#E4E5E6" transform="translate(176,154)"/>
<path d="M0 0 C10.89 0 21.78 0 33 0 C33 10.89 33 21.78 33 33 C22.11 33 11.22 33 0 33 C0 22.11 0 11.22 0 0 Z " fill="#AAAAAA" transform="translate(143,154)"/>
<path d="M0 0 C10.89 0 21.78 0 33 0 C33 10.89 33 21.78 33 33 C22.11 33 11.22 33 0 33 C0 22.11 0 11.22 0 0 Z " fill="#AAAAAA" transform="translate(339,89)"/>
<path d="M0 0 C10.89 0 21.78 0 33 0 C33 10.89 33 21.78 33 33 C22.11 33 11.22 33 0 33 C0 22.11 0 11.22 0 0 Z " fill="#D2D2D2" transform="translate(306,89)"/>
<path d="M0 0 C10.89 0 21.78 0 33 0 C33 10.89 33 21.78 33 33 C22.11 33 11.22 33 0 33 C0 22.11 0 11.22 0 0 Z " fill="#AAAAAA" transform="translate(241,89)"/>
<path d="M0 0 C10.89 0 21.78 0 33 0 C33 10.56 33 21.12 33 32 C22.11 32 11.22 32 0 32 C0 21.44 0 10.88 0 0 Z " fill="#848484" transform="translate(143,383)"/>
<path d="M0 0 C10.56 0 21.12 0 32 0 C32 10.89 32 21.78 32 33 C21.44 33 10.88 33 0 33 C0 22.11 0 11.22 0 0 Z " fill="#BDBDBD" transform="translate(274,350)"/>
<path d="M0 0 C10.56 0 21.12 0 32 0 C32 10.89 32 21.78 32 33 C21.44 33 10.88 33 0 33 C0 22.11 0 11.22 0 0 Z " fill="#848484" transform="translate(111,350)"/>
<path d="M0 0 C10.56 0 21.12 0 32 0 C32 10.89 32 21.78 32 33 C21.44 33 10.88 33 0 33 C0 22.11 0 11.22 0 0 Z " fill="#D2D2D2" transform="translate(111,317)"/>
<path d="M0 0 C10.89 0 21.78 0 33 0 C33 10.56 33 21.12 33 32 C22.11 32 11.22 32 0 32 C0 21.44 0 10.88 0 0 Z " fill="#848484" transform="translate(404,285)"/>
<path d="M0 0 C10.89 0 21.78 0 33 0 C33 10.56 33 21.12 33 32 C22.11 32 11.22 32 0 32 C0 21.44 0 10.88 0 0 Z " fill="#D2D2D2" transform="translate(78,285)"/>
<path d="M0 0 C10.56 0 21.12 0 32 0 C32 10.89 32 21.78 32 33 C21.44 33 10.88 33 0 33 C0 22.11 0 11.22 0 0 Z " fill="#848484" transform="translate(437,252)"/>
<path d="M0 0 C10.89 0 21.78 0 33 0 C33 10.56 33 21.12 33 32 C22.11 32 11.22 32 0 32 C0 21.44 0 10.88 0 0 Z " fill="#D2D2D2" transform="translate(404,220)"/>
<path d="M0 0 C10.89 0 21.78 0 33 0 C33 10.56 33 21.12 33 32 C22.11 32 11.22 32 0 32 C0 21.44 0 10.88 0 0 Z " fill="#E4E5E6" transform="translate(339,122)"/>
<path d="M0 0 C10.89 0 21.78 0 33 0 C33 10.56 33 21.12 33 32 C22.11 32 11.22 32 0 32 C0 21.44 0 10.88 0 0 Z " fill="#D2D2D2" transform="translate(241,122)"/>
<path d="M0 0 C10.56 0 21.12 0 32 0 C32 10.89 32 21.78 32 33 C21.44 33 10.88 33 0 33 C0 22.11 0 11.22 0 0 Z " fill="#E4E5E6" transform="translate(274,89)"/>
<path d="M0 0 C10.56 0 21.12 0 32 0 C32 10.56 32 21.12 32 32 C21.44 32 10.88 32 0 32 C0 21.44 0 10.88 0 0 Z " fill="#BDBDBD" transform="translate(209,383)"/>
<path d="M0 0 C10.56 0 21.12 0 32 0 C32 10.56 32 21.12 32 32 C21.44 32 10.88 32 0 32 C0 21.44 0 10.88 0 0 Z " fill="#D2D2D2" transform="translate(372,285)"/>
<path d="M0 0 C10.56 0 21.12 0 32 0 C32 10.56 32 21.12 32 32 C21.44 32 10.88 32 0 32 C0 21.44 0 10.88 0 0 Z " fill="#E4E5E6" transform="translate(111,285)"/>
<path d="M0 0 C10.56 0 21.12 0 32 0 C32 10.56 32 21.12 32 32 C21.44 32 10.88 32 0 32 C0 21.44 0 10.88 0 0 Z " fill="#848484" transform="translate(46,285)"/>
<path d="M0 0 C10.56 0 21.12 0 32 0 C32 10.56 32 21.12 32 32 C21.44 32 10.88 32 0 32 C0 21.44 0 10.88 0 0 Z " fill="#848484" transform="translate(469,220)"/>
<path d="M0 0 C10.56 0 21.12 0 32 0 C32 10.56 32 21.12 32 32 C21.44 32 10.88 32 0 32 C0 21.44 0 10.88 0 0 Z " fill="#AAAAAA" transform="translate(437,220)"/>
<path d="M0 0 C10.56 0 21.12 0 32 0 C32 10.56 32 21.12 32 32 C21.44 32 10.88 32 0 32 C0 21.44 0 10.88 0 0 Z " fill="#E4E5E6" transform="translate(111,220)"/>
<path d="M0 0 C10.56 0 21.12 0 32 0 C32 10.56 32 21.12 32 32 C21.44 32 10.88 32 0 32 C0 21.44 0 10.88 0 0 Z " fill="#AAAAAA" transform="translate(46,220)"/>
<path d="M0 0 C10.56 0 21.12 0 32 0 C32 10.56 32 21.12 32 32 C21.44 32 10.88 32 0 32 C0 21.44 0 10.88 0 0 Z " fill="#AAAAAA" transform="translate(372,122)"/>
</svg>
